<?xml version="1.0" encoding="utf-8"?>
<!-- Generator: Adobe Illustrator 16.0.0, SVG Export Plug-In . SVG Version: 6.00 Build 0)  -->
<!DOCTYPE svg PUBLIC "-//W3C//DTD SVG 1.1//EN" "http://www.w3.org/Graphics/SVG/1.1/DTD/svg11.dtd">
<svg version="1.1" id="Layer_1" xmlns="http://www.w3.org/2000/svg" xmlns:xlink="http://www.w3.org/1999/xlink" x="0px" y="0px"
	 width="14px" height="14px" viewBox="0 0 14 14" enable-background="new 0 0 14 14" xml:space="preserve">
<g>
	<path fill="#010101" d="M0.674,3.088c0.367,0.195,5.481,2.984,5.673,3.083c0.191,0.102,0.385,0.146,0.686,0.146
		c0.301,0,0.496-0.045,0.687-0.146c0.19-0.1,5.306-2.889,5.674-3.083c0.139-0.07,0.367-0.197,0.418-0.341
		c0.088-0.254-0.006-0.352-0.378-0.352h-6.4h-6.4c-0.372,0-0.465,0.1-0.378,0.352C0.305,2.895,0.535,3.019,0.674,3.088z"/>
	<path fill="#010101" d="M13.684,3.24c-0.274,0.141-2.737,1.895-4.368,2.95l2.753,3.095c0.065,0.068,0.096,0.149,0.058,0.188
		s-0.125,0.018-0.196-0.045L8.628,6.641C8.13,6.962,7.78,7.183,7.719,7.217C7.461,7.348,7.281,7.363,7.032,7.363
		c-0.247,0-0.428-0.016-0.686-0.146C6.283,7.183,5.935,6.962,5.436,6.641L2.135,9.427C2.068,9.493,1.979,9.514,1.938,9.472
		C1.898,9.438,1.928,9.353,1.996,9.284l2.747-3.095C3.113,5.135,0.624,3.38,0.348,3.24C0.054,3.088,0.037,3.267,0.037,3.403
		c0,0.138,0,6.864,0,6.864c0,0.31,0.458,0.699,0.787,0.699h6.208h6.21c0.328,0,0.72-0.392,0.72-0.699c0,0,0-6.729,0-6.864
		C13.962,3.263,13.981,3.088,13.684,3.24z"/>
</g>
</svg>
