<?xml version="1.0" encoding="utf-8"?>
<!-- Generator: Adobe Illustrator 16.0.0, SVG Export Plug-In . SVG Version: 6.00 Build 0)  -->
<!DOCTYPE svg PUBLIC "-//W3C//DTD SVG 1.1//EN" "http://www.w3.org/Graphics/SVG/1.1/DTD/svg11.dtd">
<svg version="1.1" id="Layer_1" xmlns="http://www.w3.org/2000/svg" xmlns:xlink="http://www.w3.org/1999/xlink" x="0px" y="0px"
	 width="14px" height="14px" viewBox="0 0 14 14" enable-background="new 0 0 14 14" xml:space="preserve">
<g>
	<path fill="#010101" d="M10.146,0.044h-6.2c-0.517,0-0.939,0.422-0.939,0.939v12.029c0,0.517,0.423,0.94,0.939,0.94h6.2
		c0.517,0,0.94-0.423,0.94-0.94V0.984C11.087,0.467,10.663,0.044,10.146,0.044z M6.055,0.722h1.984c0.063,0,0.113,0.05,0.113,0.114
		c0,0.063-0.051,0.113-0.113,0.113H6.055c-0.063,0-0.113-0.05-0.113-0.113C5.941,0.772,5.992,0.722,6.055,0.722z M7.047,13.483
		c-0.259,0-0.47-0.211-0.47-0.471c0-0.259,0.211-0.469,0.47-0.469s0.47,0.21,0.47,0.469C7.517,13.272,7.306,13.483,7.047,13.483z
		 M10.434,12.215H3.661V1.534h6.773V12.215z"/>
</g>
</svg>
