<?xml version="1.0" encoding="utf-8"?>
<!-- Generator: Adobe Illustrator 16.0.0, SVG Export Plug-In . SVG Version: 6.00 Build 0)  -->
<!DOCTYPE svg PUBLIC "-//W3C//DTD SVG 1.1//EN" "http://www.w3.org/Graphics/SVG/1.1/DTD/svg11.dtd">
<svg version="1.1" id="Layer_1" xmlns="http://www.w3.org/2000/svg" xmlns:xlink="http://www.w3.org/1999/xlink" x="0px" y="0px"
	 width="14px" height="14px" viewBox="0 0 14 14" enable-background="new 0 0 14 14" xml:space="preserve">
<g>
	<path fill="#040305" d="M6.979,8.325c-1.931,0-3.496-1.875-3.496-4.189c0-2.312,1.565-4.026,3.496-4.026
		c1.932,0,3.499,1.714,3.499,4.026C10.478,6.45,8.91,8.325,6.979,8.325z M1.54,13.988c0,0-0.742,0.049-1.068-0.401
		c-0.176-0.243-0.053-0.736,0.067-1.011l0.295-0.675c0,0,0.817-1.827,1.749-2.888c0.572-0.649,1.251-0.501,1.691-0.29
		c0.271,0.129,0.577,0.509,0.801,0.71c0.308,0.275,0.853,0.59,1.743,0.607h0.546c0.891-0.018,1.433-0.332,1.741-0.607
		C9.33,9.232,9.627,8.842,9.896,8.707c0.401-0.202,1.017-0.326,1.574,0.307c0.932,1.061,1.669,2.922,1.669,2.922l0.303,0.66
		c0.125,0.272,0.254,0.764,0.082,1.01c-0.307,0.442-0.993,0.383-0.993,0.383H1.54z"/>
</g>
</svg>
