<?xml version="1.0" encoding="utf-8"?>
<!-- Generator: Adobe Illustrator 16.0.0, SVG Export Plug-In . SVG Version: 6.00 Build 0)  -->
<!DOCTYPE svg PUBLIC "-//W3C//DTD SVG 1.1//EN" "http://www.w3.org/Graphics/SVG/1.1/DTD/svg11.dtd">
<svg version="1.1" id="Layer_1" xmlns="http://www.w3.org/2000/svg" xmlns:xlink="http://www.w3.org/1999/xlink" x="0px" y="0px"
	 width="14px" height="14px" viewBox="0 0 14 14" enable-background="new 0 0 14 14" xml:space="preserve">
<g>
	<path fill="#010101" d="M12.406,5.015H12.07V3.395c0-0.008,0-0.019-0.002-0.029c0-0.063-0.021-0.128-0.066-0.178L9.309,0.108
		L9.307,0.107C9.291,0.089,9.27,0.072,9.25,0.061C9.244,0.058,9.238,0.054,9.232,0.05C9.217,0.042,9.197,0.032,9.18,0.028
		C9.174,0.026,9.168,0.023,9.162,0.022C9.145,0.017,9.123,0.015,9.102,0.015H2.477c-0.303,0-0.548,0.246-0.548,0.548v4.452H1.594
		c-0.432,0-0.784,0.351-0.784,0.782v4.074c0,0.435,0.352,0.787,0.784,0.787h0.335v2.788c0,0.303,0.245,0.548,0.548,0.548h9.046
		c0.303,0,0.547-0.245,0.547-0.548v-2.788h0.336c0.434,0,0.783-0.353,0.783-0.787V5.799C13.189,5.366,12.84,5.015,12.406,5.015z
		 M2.477,0.563h6.351v2.805c0,0.15,0.121,0.273,0.273,0.273h2.422v1.374H2.477V0.563z M8.254,5.717V9.81H7.323V5.717H8.254z
		 M3.741,6.482V5.717H6.71v0.534l-1.906,2.77v0.024H6.74V9.81H3.559V9.312l1.95-2.806V6.482H3.741z M11.523,13.297H2.477v-2.639
		h9.046V13.297L11.523,13.297z M11.621,7.933c-0.316,0.297-0.785,0.43-1.334,0.43c-0.123,0-0.229-0.004-0.314-0.016V9.81H9.057
		V5.771c0.283-0.048,0.686-0.084,1.25-0.084c0.57,0,0.977,0.108,1.25,0.328c0.262,0.207,0.436,0.547,0.436,0.947
		C11.992,7.362,11.863,7.703,11.621,7.933z"/>
	<path fill="#010101" d="M10.355,6.384c-0.191,0-0.316,0.019-0.383,0.036v1.21c0.078,0.018,0.176,0.023,0.311,0.023
		c0.49,0,0.793-0.248,0.793-0.668C11.076,6.609,10.816,6.384,10.355,6.384z"/>
</g>
</svg>
